#!OML:ASF H:\MichaelJackson\Top Level 1\Subject 1\Session 1\male.ASF
:FULLY-SPECIFIED
:DEGREES
945
root -9.33391 16.346 13.4085 -181.531 -47.3925 -185.152
lowerback 11.2828 1.88765 -4.07121
upperback 3.5228 1.82774 -0.229685
thorax -2.76442 0.81757 1.80964
lowerneck -10.7127 2.22498 6.64909
upperneck 13.3979 2.60232 -5.33295
head 5.97288 1.15793 -2.5699
rclavicle 1.20811e-013 -3.18055e-015
rhumerus -45.1854 2.23155 -97.6144
rradius 97.3026
rwrist 13.7385
rhand -33.5174 -28.2609
rfingers 7.12502
rthumb -6.71374 -58.1344
lclavicle 1.20811e-013 -3.18055e-015
lhumerus -56.4898 -7.31163 94.0387
lradius 66.366
lwrist 22.8174
lhand -13.8349 4.96087
lfingers 7.12502
lthumb 12.2883 34.5798
rfemur -78.7277 2.37069 38.4343
rtibia 86.1146
rfoot 17.4798 22.3222
rtoes -31.0421
lfemur -11.0635 2.1174 -29.2624
ltibia 46.4578
lfoot -29.4484 1.49694
ltoes 23.5548
946
root -9.3242 16.3376 13.3503 -180.877 -50.5289 -185.382
lowerback 10.9539 2.04379 -4.14479
upperback 3.26888 2.06119 -0.314053
thorax -2.86221 0.950737 1.73497
lowerneck -10.3972 1.83836 6.78875
upperneck 12.8345 2.0433 -5.13958
head 5.70646 0.915705 -2.57493
rclavicle -1.59587e-013 2.97183e-014
rhumerus -45.5538 2.77299 -98.5308
rradius 96.6673
rwrist 14.7687
rhand -33.1954 -28.4535
rfingers 7.12502
rthumb -6.40287 -58.3367
lclavicle -1.59587e-013 2.97183e-014
lhumerus -56.1937 -8.58824 95.0292
lradius 68.2898
lwrist 23.8582
lhand -12.4129 6.3209
lfingers 7.12502
lthumb 13.6591 35.8527
rfemur -77.4772 2.42481 37.8873
rtibia 86.3198
rfoot 16.4752 18.5697
rtoes -32.9057
lfemur -11.6673 1.76256 -28.9905
ltibia 46.9358
lfoot -29.4001 -0.113046
ltoes 21.4409
947
root -9.31646 16.3326 13.275 -181.115 -53.5655 -184.623
lowerback 10.5734 2.21249 -3.79088
upperback 3.09129 2.36534 -0.207199
thorax -2.84724 1.11383 1.61396
lowerneck -10.7972 1.2606 5.96654
upperneck 12.8866 1.26004 -4.31195
head 5.73226 0.554083 -2.23961
rclavicle -7.95387e-014 1.3418e-014
rhumerus -45.7237 3.3269 -99.3932
rradius 95.9886
rwrist 15.7181
rhand -32.3826 -28.3584
rfingers 7.12502
rthumb -5.61816 -58.2639
lclavicle -7.95387e-014 1.3418e-014
lhumerus -55.9169 -9.85744 96.0212
lradius 70.1301
lwrist 24.2001
lhand -10.6797 7.77125
lfingers 7.12502
lthumb 15.3291 37.1831
rfemur -75.8782 2.73469 37.9892
rtibia 86.1857
rfoot 16.1033 15.4079
rtoes -34.3963
lfemur -12.0817 1.71819 -27.9691
ltibia 47.3334
lfoot -29.6369 -1.83739
ltoes 19.0832
948
root -9.31274 16.3385 13.2028 -180.862 -56.8209 -184.351
lowerback 10.1699 2.29476 -3.61261
upperback 2.81725 2.52732 -0.293453
thorax -2.90797 1.209 1.41068
lowerneck -10.7169 0.782646 5.66929
upperneck 12.6069 0.591487 -3.77367
head 5.59322 0.256029 -2.07131
rclavicle -2.64585e-014 1.78906e-014
rhumerus -46.0497 4.02943 -100.402
rradius 95.4661
rwrist 16.1176
rhand -31.8792 -27.9879
rfingers 7.12502
rthumb -5.13212 -57.9057
lclavicle -2.64585e-014 1.78906e-014
lhumerus -55.8616 -11.1309 96.9967
lradius 71.8821
lwrist 23.9368
lhand -8.08726 8.60322
lfingers 7.12502
lthumb 17.8249 37.8063
rfemur -74.6635 3.01883 37.4317
rtibia 85.9466
rfoot 16.7384 12.8144
rtoes -33.7403
lfemur -12.5374 1.51232 -27.3075
ltibia 47.5546
lfoot -29.929 -3.96651
ltoes 18.5472
949
root -9.31603 16.3421 13.1306 -180.632 -60.213 -184.253
lowerback 10.1038 2.23915 -3.19706
upperback 2.55206 2.49887 -0.582907
thorax -3.11535 1.20517 0.878102
lowerneck -10.7179 0.397713 5.45849
upperneck 12.3953 0.0354393 -3.25676
head 5.5006 0.0134303 -1.91501
rclavicle 5.56162e-014 -1.08338e-014
rhumerus -46.2998 4.96634 -101.628
rradius 94.9669
rwrist 16.1023
rhand -31.0762 -27.5242
rfingers 7.12502
rthumb -4.35671 -57.4594
lclavicle 5.56162e-014 -1.08338e-014
lhumerus -55.9406 -12.3286 97.6417
lradius 73.6301
lwrist 23.265
lhand -5.9772 9.4078
lfingers 7.12502
lthumb 19.8543 38.4137
rfemur -73.4211 3.16439 36.6714
rtibia 85.5576
rfoot 17.3142 11.5139
rtoes -34.2469
lfemur -12.7591 0.93155 -26.8002
ltibia 47.6653
lfoot -30.2013 -6.11172
ltoes 18.4626
950
root -9.32485 16.3549 13.0518 -180.277 -63.8333 -184.161
lowerback 9.25845 2.08662 -3.79962
upperback 2.60973 2.30689 -0.120462
thorax -2.62282 1.11251 1.7477
lowerneck -10.6626 0.0831916 4.48822
upperneck 11.9143 -0.249336 -3.06082
head 5.32885 -0.155041 -1.71204
rclavicle -1.50377e-014 -2.73329e-016
rhumerus -46.376 7.05177 -101.869
rradius 94.6015
rwrist 15.4437
rhand -30.2969 -26.722
rfingers 7.12502
rthumb -3.60421 -56.6712
lclavicle -1.50377e-014 -2.73329e-016
lhumerus -55.4811 -12.6218 99.0451
lradius 75.181
lwrist 22.49
lhand -4.44517 10.2625
lfingers 7.12502
lthumb 21.3264 39.109
rfemur -72.4698 3.32855 35.6405
rtibia 85.1377
rfoot 18.1562 10.3117
rtoes -32.6972
lfemur -13.0367 0.121678 -26.26
ltibia 47.6168
lfoot -30.5364 -8.20122
ltoes 17.5177
951
root -9.3414 16.3671 12.9787 -180.487 -67.6246 -183.654
lowerback 8.94184 2.33059 -3.50696
upperback 2.38751 2.67972 -0.230139
thorax -2.68192 1.30749 1.43241
lowerneck -10.3818 -0.76624 4.54114
upperneck 11.8004 -1.42905 -2.79943
head 5.20138 -0.710029 -1.72312
rclavicle 1.95554e-014 -3.8763e-015
rhumerus -46.7563 7.01743 -102.43
rradius 94.4494
rwrist 14.7134
rhand -29.9136 -25.8708
rfingers 7.12502
rthumb -3.23403 -55.826
lclavicle 1.95554e-014 -3.8763e-015
lhumerus -55.7772 -14.7025 100.394
lradius 76.5384
lwrist 21.6661
lhand -2.21174 10.57
lfingers 7.12502
lthumb 23.4703 39.1584
rfemur -71.3218 3.33303 34.7574
rtibia 84.5981
rfoot 18.4059 10.6013
rtoes -32.4391
lfemur -13.1791 -1.02323 -25.541
ltibia 47.5872
lfoot -30.6626 -10.7847
ltoes 18.5122
952
root -9.36923 16.3755 12.8995 -180.224 -71.4405 -183.918
lowerback 8.66613 2.22082 -3.78342
upperback 2.5066 2.53109 -0.0912381
thorax -2.41592 1.23044 1.76026
lowerneck -10.3799 -1.23322 4.24693
upperneck 11.4718 -2.0131 -2.75721
head 5.07969 -1.00551 -1.69983
rclavicle -4.25275e-014 1.12313e-014
rhumerus -46.849 8.41075 -102.76
rradius 94.2068
rwrist 13.7779
rhand -28.9622 -24.5904
rfingers 7.12502
rthumb -2.31519 -54.5576
lclavicle -4.25275e-014 1.12313e-014
lhumerus -55.4368 -15.4895 101.588
lradius 77.7151
lwrist 21.0663
lhand -0.646487 10.7211
lfingers 7.12502
lthumb 24.971 39.1094
rfemur -70.0014 3.34322 33.5104
rtibia 84.0267
rfoot 18.402 11.5721
rtoes -32.3515
lfemur -13.1094 -1.95472 -25.1336
ltibia 47.5582
lfoot -30.6777 -13.6427
ltoes 19.9166
953
root -9.39279 16.3831 12.8204 -180.264 -75.3417 -183.659
lowerback 8.44301 2.29181 -3.63439
upperback 2.35678 2.65387 -0.159853
thorax -2.44503 1.29825 1.59692
lowerneck -10.0703 -1.94726 3.81554
upperneck 11.2391 -2.95751 -2.28116
head 4.93543 -1.45465 -1.5401
rclavicle -1.22377e-014 -8.15017e-015
rhumerus -47.207 8.77213 -103.185
rradius 94.0733
rwrist 12.6177
rhand -28.587 -23.343
rfingers 7.12502
rthumb -1.95282 -53.3138
lclavicle -1.22377e-014 -8.15017e-015
lhumerus -55.6452 -17.1837 102.846
lradius 78.7366
lwrist 20.7739
lhand -0.0393066 10.7665
lfingers 7.12502
lthumb 25.5527 39.0727
rfemur -68.9316 3.57406 32.3429
rtibia 83.399
rfoot 18.3985 12.5745
rtoes -31.3511
lfemur -13.3844 -2.82755 -24.4725
ltibia 47.6379
lfoot -30.4585 -16.7119
ltoes 22.0032
954
root -9.42455 16.3864 12.7347 -178.805 -79.0183 -185.146
lowerback 8.35262 2.4569 -4.01017
upperback 2.32381 2.84397 -0.292617
thorax -2.45061 1.39571 1.65151
lowerneck -9.95178 -2.6576 3.51373
upperneck 11.1279 -3.9063 -1.94153
head 4.86416 -1.91009 -1.44626
rclavicle 3.96824e-014 -4.57205e-015
rhumerus -47.5656 9.16101 -103.462
rradius 94.0627
rwrist 11.6545
rhand -27.8457 -22.3084
rfingers 7.12502
rthumb -1.23688 -52.2846
lclavicle 3.96824e-014 -4.57205e-015
lhumerus -55.6526 -18.5846 103.811
lradius 79.6048
lwrist 20.8176
lhand 4.07617 11.2169
lfingers 7.12502
lthumb 29.4884 38.8956
rfemur -67.74 3.95914 30.8546
rtibia 82.8327
rfoot 18.0298 14.1533
rtoes -31.007
lfemur -13.4493 -3.13208 -24.2246
ltibia 47.7868
lfoot -30.0579 -19.8219
ltoes 24.4196
955
root -9.46272 16.3925 12.6567 -176.444 -82.8145 -187.552
lowerback 8.32317 2.42691 -4.34476
upperback 2.30048 2.77858 -0.339522
thorax -2.4675 1.36615 1.79767
lowerneck -9.71466 -3.22581 2.94243
upperneck 10.9808 -4.63943 -1.44689
head 4.78405 -2.26198 -1.24315
rclavicle -2.5196e-014 6.16232e-015
rhumerus -47.9104 9.82294 -103.885
rradius 93.9607
rwrist 10.9607
rhand -27.4162 -21.6515
rfingers 7.12502
rthumb -0.822045 -51.6297
lclavicle -2.5196e-014 6.16232e-015
lhumerus -55.4493 -19.1289 104.435
lradius 80.2276
lwrist 20.5858
lhand 7.13178 11.8211
lfingers 7.12502
lthumb 32.4011 38.9458
rfemur -66.5623 4.30669 29.4294
rtibia 82.2798
rfoot 17.4204 15.9684
rtoes -30.389
lfemur -13.5173 -3.36088 -23.9819
ltibia 48.0535
lfoot -29.4508 -22.3033
ltoes 26.6094
956
root -9.50393 16.3953 12.5796 -168.072 -86.5303 -195.818
lowerback 8.15278 2.42679 -4.58943
upperback 2.26325 2.76604 -0.474729
thorax -2.41527 1.36177 1.80166
lowerneck -9.76574 -3.85938 2.35642
upperneck 11.106 -5.4859 -0.841082
head 4.84615 -2.66058 -1.02218
rclavicle -1.87106e-014 -7.55382e-015
rhumerus -48.2512 10.4066 -104.172
rradius 93.8473
rwrist 10.9507
rhand -26.6838 -20.7808
rfingers 7.12502
rthumb -0.11469 -50.7605
lclavicle -1.87106e-014 -7.55382e-015
lhumerus -55.3921 -19.9632 105.002
lradius 80.8097
lwrist 20.6197
lhand 9.26946 12.4621
lfingers 7.12502
lthumb 34.4331 39.1487
rfemur -65.6464 4.65248 28.0606
rtibia 81.788
rfoot 16.7007 17.9651
rtoes -30.5703
lfemur -13.7556 -3.2103 -23.8477
ltibia 48.4234
lfoot -28.8226 -23.8065
ltoes 28.5602
957
root -9.54888 16.4034 12.5 -250.318 -90.8772 -113.418
lowerback 7.98466 2.45954 -4.80951
upperback 2.17251 2.80392 -0.499332
thorax -2.42741 1.38558 1.89928
lowerneck -9.50387 -4.49059 1.62627
upperneck 11.0846 -6.2962 -0.27352
head 4.82451 -3.05242 -0.779065
rclavicle -2.77553e-014 1.43125e-014
rhumerus -48.6436 10.8893 -104.439
rradius 93.7452
rwrist 11.474
rhand -26.7488 -20.8093
rfingers 7.12502
rthumb -0.177506 -50.789
lclavicle -2.77553e-014 1.43125e-014
lhumerus -55.2368 -20.277 105.277
lradius 81.3339
lwrist 20.6719
lhand 11.9805 13.3781
lfingers 7.12502
lthumb 37.0023 39.442
rfemur -64.7726 5.07226 26.9535
rtibia 81.3152
rfoot 15.9757 19.8458
rtoes -30.618
lfemur -14.0046 -2.60086 -23.6129
ltibia 48.8713
lfoot -28.2609 -24.3755
ltoes 28.9492
